<svg t="1782286759954" class="icon" viewBox="0 0 1024 1024" version="1.1" xmlns="http://www.w3.org/2000/svg" p-id="6555">
<path d="M360.389512 557.544289l184.919617 0 0 30.819936-184.919617 0 0-30.819936Z" fill="#00D3D3" p-id="6556"></path>
<path d="M360.389512 480.981543l308.200384 0 0 30.819936-308.200384 0 0-30.819936Z" fill="#00D3D3" p-id="6557"></path>
<path d="M360.389512 404.417773l308.200384 0 0 30.819936-308.200384 0 0-30.819936Z" fill="#00D3D3" p-id="6558"></path>
<path d="M511.999488 64.021106c-247.27171 0-447.724091 200.452381-447.724091 447.724091s200.452381 447.724091 447.724091 447.724091 447.724091-200.453405 447.724091-447.724091S759.271198 64.021106 511.999488 64.021106zM761.050728 620.157325c0 34.041304-27.599591 61.639872-61.640895 61.639872l-154.09968 0 0 123.280768L422.029384 681.798221 329.569576 681.798221c-34.040281 0-61.639872-27.599591-61.639872-61.639872L267.929704 373.597837c0-34.040281 27.599591-61.639872 61.639872-61.639872l369.840256 0c34.042327 0 61.640895 27.599591 61.640895 61.639872L761.050728 620.157325z" fill="#00D3D3" p-id="6559"></path>
</svg>